mtllib cabin.mtl
# vertices
v -192 -32 -192
v -192 -32 192
v -192 0 192
v -192 0 -192
v 192 0 192
v 192 -32 192
v 192 -32 -192
v 192 0 -192
v -192 -32 192
v -192 -32 384
v -192 0 384
v -192 0 192
v 192 0 384
v 192 -32 384
v 192 -32 192
v 192 0 192
v 192 -32 -192
v 192 -32 192
v 192 0 192
v 192 0 -192
v 672 0 192
v 672 -32 192
v 672 -32 -192
v 672 0 -192
v -672 -32 -192
v -672 -32 192
v -672 0 192
v -672 0 -192
v -192 0 192
v -192 -32 192
v -192 -32 -192
v -192 0 -192
v 192 0 192
v 192 0 384
v 192 128 384
v 192 128 192
v 224 128 384
v 224 0 384
v 224 0 192
v 224 128 192
v -224 0 192
v -224 0 384
v -224 128 384
v -224 128 192
v -192 128 384
v -192 0 384
v -192 0 192
v -192 128 192
v -672 0 192
v -672 0 224
v -672 128 224
v -672 128 192
v -224 128 224
v -224 0 224
v -224 0 192
v -224 128 192
v 224 0 192
v 224 0 224
v 224 128 224
v 224 128 192
v 672 128 224
v 672 0 224
v 672 0 192
v 672 128 192
v -672 0 -224
v -672 0 -192
v -672 128 -192
v -672 128 -224
v 672 128 -192
v 672 0 -192
v 672 0 -224
v 672 128 -224
v 672 0 -192
v 672 0 192
v 672 128 192
v 672 128 -192
v 704 128 192
v 704 0 192
v 704 0 -192
v 704 128 -192
v -704 0 -192
v -704 0 192
v -704 128 192
v -704 128 -192
v -672 128 192
v -672 0 192
v -672 0 -192
v -672 128 -192
v 0 352 -0
v -224 128 224
v -224 128 384
v 0 352 384
v 0 320 -0
v -192 128 192
v -192 128 384
v 0 320 384
v -704 128 -224
v -704 128 -192
v -704 320 -0
v -704 352 -0
v 704 352 -0
v 704 320 -0
v 704 128 -192
v 704 128 -224
v 0 320 -0
v 192 128 192
v 224 128 224
v 0 352 -0
v 704 352 -0
v 704 128 224
v 704 128 192
v 704 320 -0
v 0 320 -0
v 0 320 384
v 0 352 384
v 0 352 -0
v 192 128 192
v 192 128 384
v 224 128 384
v 224 128 224
v -704 320 -0
v -704 128 192
v -704 128 224
v -704 352 -0
v 0 352 -0
v -224 128 224
v -192 128 192
v 0 320 -0

# texture coordinates
vt 192 -32
vt -192 -32
vt -192 -0
vt 192 -0
vt 192 -192
vt -192 -192
vt -192 192
vt 192 192
vt -384 -32
vt -384 -0
vt 192 -384
vt -192 -384
vt 672 -0
vt 672 -32
vt 192 672
vt -192 672
vt -672 -0
vt -672 -32
vt 192 -672
vt -192 -672
vt -384 128
vt -192 128
vt 224 128
vt 192 128
vt 224 -0
vt 224 -384
vt 224 -192
vt -224 128
vt -224 -0
vt -224 -384
vt -224 -192
vt -672 128
vt 224 -224
vt 224 -672
vt 192 -224
vt 672 128
vt 224 672
vt 224 224
vt 192 224
vt -224 -672
vt -224 672
vt -704 128
vt -704 -0
vt -704 192
vt -672 192
vt -672 -192
vt -704 -192
vt 704 128
vt 704 -0
vt 672 192
vt 704 192
vt 704 -192
vt 672 -192
vt 0 -0
vt -224 -224
vt 0 -384
vt 0.090911865234375 320
vt -191.90908813476562 128
vt -223.90908813476562 128
vt 0.090911865234375 352
vt 0 352
vt 0 320
vt -384 352
vt -384 320
vt -352 704
vt -352 -704
vt -320 -704
vt -320 704
vt 0 704
vt 0 -704
vt -192 -704
vt -192 704
vt -224 -704
vt -224 704
vt 0.9725341796875 319.54296875
vt -191.0274658203125 127.54296875
vt -223.0274658203125 127.54296875
vt 0.9725341796875 351.54296875
vt 320 -704
vt 320 -0
vt 352 -0
vt 352 -704
vt 0 -320
vt 384 -320
vt 384 -352
vt 0 -352
vt -192 384
vt 0 384
vt -224 224
vt -224 384
vt 223.45454406738281 128
vt 191.45454406738281 128
vt -0.5454559326171875 320
vt -0.5454559326171875 352
vt -192.0274658203125 127.54296875
vt -0.0274658203125 319.54296875
vt -0.0274658203125 351.54296875
vt -224.0274658203125 127.54296875

# face normals
vn -1 0 0
vn 0 0 1
vn 0 -1 -0
vn -0 1 -0
vn 0 -0 -1
vn 1 0 0
vn -0.70710678118654757 0.70710678118654757 -0
vn -0.70710678118654757 0 -0.70710678118654757
vn 0.70710678118654757 -0.70710678118654757 -0
vn 0 -0.70710678118654757 0.70710678118654757
vn -0 0.70710678118654757 -0.70710678118654757
vn -0.70710678118654757 0 0.70710678118654757
vn 0 0.70710678118654757 0.70710678118654757
vn 0 -0.70710678118654757 -0.70710678118654757
vn -0.70710678118654757 -0.70710678118654757 -0
vn 0.70710678118654746 0.70710678118654746 -0
vn 0.70710678118654757 0 -0.70710678118654757
vn 0.70710678118654757 0 0.70710678118654757

# objects
o entity0_brush0
usemtl __TB_empty
f 1/1/1 2/2/1 3/3/1 4/4/1
usemtl __TB_empty
f 5/4/2 3/3/2 2/2/2 6/1/2
usemtl __TB_empty
f 6/5/3 2/6/3 1/7/3 7/8/3
usemtl __TB_empty
f 8/8/4 4/7/4 3/6/4 5/5/4
usemtl __TB_empty
f 7/1/5 1/2/5 4/3/5 8/4/5
usemtl __TB_empty
f 8/4/6 5/3/6 6/2/6 7/1/6

o entity0_brush1
usemtl __TB_empty
f 9/2/1 10/9/1 11/10/1 12/3/1
usemtl __TB_empty
f 13/4/2 11/3/2 10/2/2 14/1/2
usemtl __TB_empty
f 14/11/3 10/12/3 9/6/3 15/5/3
usemtl __TB_empty
f 16/5/4 12/6/4 11/12/4 13/11/4
usemtl __TB_empty
f 15/1/5 9/2/5 12/3/5 16/4/5
usemtl __TB_empty
f 16/3/6 13/10/6 14/9/6 15/2/6

o entity0_brush2
usemtl __TB_empty
f 17/2/1 18/1/1 19/4/1 20/3/1
usemtl __TB_empty
f 21/13/2 19/4/2 18/1/2 22/14/2
usemtl __TB_empty
f 22/15/3 18/8/3 17/7/3 23/16/3
usemtl __TB_empty
f 24/16/4 20/7/4 19/8/4 21/15/4
usemtl __TB_empty
f 23/14/5 17/1/5 20/4/5 24/13/5
usemtl __TB_empty
f 24/3/6 21/4/6 22/1/6 23/2/6

o entity0_brush3
usemtl __TB_empty
f 25/2/1 26/1/1 27/4/1 28/3/1
usemtl __TB_empty
f 29/3/2 27/17/2 26/18/2 30/2/2
usemtl __TB_empty
f 30/5/3 26/19/3 25/20/3 31/6/3
usemtl __TB_empty
f 32/6/4 28/20/4 27/19/4 29/5/4
usemtl __TB_empty
f 31/2/5 25/18/5 28/17/5 32/3/5
usemtl __TB_empty
f 32/3/6 29/4/6 30/1/6 31/2/6

o entity0_brush4
usemtl __TB_empty
f 33/3/1 34/10/1 35/21/1 36/22/1
usemtl __TB_empty
f 37/23/2 35/24/2 34/4/2 38/25/2
usemtl __TB_empty
f 38/26/3 34/11/3 33/5/3 39/27/3
usemtl __TB_empty
f 40/27/4 36/5/4 35/11/4 37/26/4
usemtl __TB_empty
f 39/25/5 33/4/5 36/24/5 40/23/5
usemtl __TB_empty
f 40/22/6 37/21/6 38/10/6 39/3/6

o entity0_brush5
usemtl __TB_empty
f 41/3/1 42/10/1 43/21/1 44/22/1
usemtl __TB_empty
f 45/22/2 43/28/2 42/29/2 46/3/2
usemtl __TB_empty
f 46/12/3 42/30/3 41/31/3 47/6/3
usemtl __TB_empty
f 48/6/4 44/31/4 43/30/4 45/12/4
usemtl __TB_empty
f 47/3/5 41/29/5 44/28/5 48/22/5
usemtl __TB_empty
f 48/22/6 45/21/6 46/10/6 47/3/6

o entity0_brush6
usemtl __TB_empty
f 49/4/1 50/25/1 51/23/1 52/24/1
usemtl __TB_empty
f 53/28/2 51/32/2 50/17/2 54/29/2
usemtl __TB_empty
f 54/33/3 50/34/3 49/19/3 55/35/3
usemtl __TB_empty
f 56/35/4 52/19/4 51/34/4 53/33/4
usemtl __TB_empty
f 55/29/5 49/17/5 52/32/5 56/28/5
usemtl __TB_empty
f 56/24/6 53/23/6 54/25/6 55/4/6

o entity0_brush7
usemtl __TB_empty
f 57/4/1 58/25/1 59/23/1 60/24/1
usemtl __TB_empty
f 61/36/2 59/23/2 58/25/2 62/13/2
usemtl __TB_empty
f 62/37/3 58/38/3 57/39/3 63/15/3
usemtl __TB_empty
f 64/15/4 60/39/4 59/38/4 61/37/4
usemtl __TB_empty
f 63/13/5 57/25/5 60/23/5 64/36/5
usemtl __TB_empty
f 64/24/6 61/23/6 62/25/6 63/4/6

o entity0_brush8
usemtl __TB_empty
f 65/29/1 66/3/1 67/22/1 68/28/1
usemtl __TB_empty
f 69/36/2 67/32/2 66/17/2 70/13/2
usemtl __TB_empty
f 70/16/3 66/20/3 65/40/3 71/41/3
usemtl __TB_empty
f 72/41/4 68/40/4 67/20/4 69/16/4
usemtl __TB_empty
f 71/13/5 65/17/5 68/32/5 72/36/5
usemtl __TB_empty
f 72/28/6 69/22/6 70/3/6 71/29/6

o entity0_brush9
usemtl __TB_empty
f 73/3/1 74/4/1 75/24/1 76/22/1
usemtl __TB_empty
f 77/42/2 75/32/2 74/17/2 78/43/2
usemtl __TB_empty
f 78/44/3 74/45/3 73/46/3 79/47/3
usemtl __TB_empty
f 80/47/4 76/46/4 75/45/4 77/44/4
usemtl __TB_empty
f 79/43/5 73/17/5 76/32/5 80/42/5
usemtl __TB_empty
f 80/22/6 77/24/6 78/4/6 79/3/6

o entity0_brush10
usemtl __TB_empty
f 81/3/1 82/4/1 83/24/1 84/22/1
usemtl __TB_empty
f 85/36/2 83/48/2 82/49/2 86/13/2
usemtl __TB_empty
f 86/50/3 82/51/3 81/52/3 87/53/3
usemtl __TB_empty
f 88/53/4 84/52/4 83/51/4 85/50/4
usemtl __TB_empty
f 87/13/5 81/49/5 84/48/5 88/36/5
usemtl __TB_empty
f 88/22/6 85/24/6 86/4/6 87/3/6

o entity0_brush11
usemtl __TB_empty
f 89/54/7 90/55/7 91/30/7 92/56/7
usemtl __TB_empty
f 93/57/8 94/58/8 90/59/8 89/60/8
usemtl __TB_empty
f 92/61/2 91/28/2 95/22/2 96/62/2
usemtl __TB_empty
f 95/12/3 91/30/3 90/55/3 94/6/3
usemtl __TB_empty
f 96/56/9 95/12/9 94/6/9 93/54/9
usemtl __TB_empty
f 92/63/6 96/64/6 93/62/6 89/61/6

o entity0_brush12
usemtl __TB_empty
f 97/28/1 98/22/1 99/62/1 100/61/1
usemtl __TB_empty
f 101/65/2 100/66/2 99/67/2 102/68/2
usemtl __TB_empty
f 102/69/10 99/70/10 98/71/10 103/72/10
usemtl __TB_empty
f 103/72/3 98/71/3 97/73/3 104/74/3
usemtl __TB_empty
f 104/74/11 97/73/11 100/70/11 101/69/11
usemtl __TB_empty
f 101/61/6 102/62/6 103/22/6 104/28/6

o entity0_brush13
usemtl __TB_empty
f 105/75/12 106/76/12 107/77/12 108/78/12
usemtl __TB_empty
f 109/70/13 108/54/13 107/55/13 110/73/13
usemtl __TB_empty
f 110/73/3 107/55/3 106/6/3 111/71/3
usemtl __TB_empty
f 111/71/14 106/6/14 105/54/14 112/70/14
usemtl __TB_empty
f 112/79/5 105/80/5 108/81/5 109/82/5
usemtl __TB_empty
f 111/22/6 112/62/6 109/61/6 110/28/6

o entity0_brush14
usemtl __TB_empty
f 113/83/1 114/84/1 115/85/1 116/86/1
usemtl __TB_empty
f 117/7/15 118/87/15 114/88/15 113/54/15
usemtl __TB_empty
f 115/61/2 114/62/2 118/22/2 119/28/2
usemtl __TB_empty
f 120/89/3 119/90/3 118/87/3 117/7/3
usemtl __TB_empty
f 116/54/16 115/88/16 119/90/16 120/89/16
usemtl __TB_empty
f 120/91/17 117/92/17 113/93/17 116/94/17

o entity0_brush15
usemtl __TB_empty
f 121/62/1 122/22/1 123/28/1 124/61/1
usemtl __TB_empty
f 125/54/13 124/70/13 123/73/13 126/55/13
usemtl __TB_empty
f 126/55/3 123/73/3 122/71/3 127/6/3
usemtl __TB_empty
f 127/6/14 122/71/14 121/70/14 128/54/14
usemtl __TB_empty
f 128/80/5 121/79/5 124/82/5 125/81/5
usemtl __TB_empty
f 127/95/18 128/96/18 125/97/18 126/98/18

