# Blender v3.0.0 OBJ File: 'capsule.blend'
# www.blender.org
mtllib capsule.mtl
o Sphere
v -0.058489 1.798646 0.160697
v -0.109923 1.711822 0.302011
v -0.148099 1.578800 0.406899
v -0.168412 1.415624 0.462708
v -0.168412 0.413176 0.462708
v -0.148099 0.250000 0.406899
v -0.109923 0.116978 0.302011
v -0.058489 0.030154 0.160697
v -0.109923 1.798646 0.131001
v -0.206588 1.711822 0.246202
v -0.278335 1.578800 0.331707
v -0.316511 1.415624 0.377203
v -0.316511 0.413176 0.377203
v -0.278335 0.250000 0.331707
v -0.206588 0.116978 0.246202
v -0.109923 0.030154 0.131001
v -0.148099 1.798646 0.085505
v -0.278335 1.711822 0.160697
v -0.375000 1.578800 0.216506
v -0.426434 1.415624 0.246202
v -0.426434 0.413176 0.246202
v -0.375000 0.250000 0.216506
v -0.278335 0.116978 0.160697
v -0.148099 0.030154 0.085505
v -0.168412 1.798646 0.029696
v -0.316511 1.711822 0.055809
v -0.426434 1.578800 0.075192
v -0.484923 1.415624 0.085505
v -0.484923 0.413176 0.085505
v -0.426434 0.250000 0.075192
v -0.316511 0.116978 0.055809
v -0.168412 0.030154 0.029696
v -0.168412 1.798646 -0.029696
v -0.316511 1.711822 -0.055809
v -0.426434 1.578800 -0.075192
v -0.484923 1.415624 -0.085505
v -0.484923 0.413176 -0.085505
v -0.426434 0.250000 -0.075192
v -0.316511 0.116978 -0.055809
v -0.168412 0.030154 -0.029696
v -0.148099 1.798646 -0.085505
v -0.278335 1.711822 -0.160697
v -0.375000 1.578800 -0.216506
v -0.426434 1.415624 -0.246202
v -0.426434 0.413176 -0.246202
v -0.375000 0.250000 -0.216506
v -0.278335 0.116978 -0.160697
v -0.148099 0.030154 -0.085505
v -0.109923 1.798646 -0.131001
v -0.206588 1.711822 -0.246202
v -0.278335 1.578800 -0.331707
v -0.316511 1.415624 -0.377203
v -0.316511 0.413176 -0.377203
v -0.278335 0.250000 -0.331707
v -0.206588 0.116978 -0.246202
v -0.109923 0.030154 -0.131001
v -0.058489 1.798646 -0.160697
v -0.109923 1.711822 -0.302011
v -0.148099 1.578800 -0.406899
v -0.168412 1.415624 -0.462708
v -0.168412 0.413176 -0.462708
v -0.148099 0.250000 -0.406899
v -0.109923 0.116978 -0.302011
v -0.058489 0.030154 -0.160697
v -0.000000 1.798646 -0.171010
v -0.000000 1.711822 -0.321394
v -0.000000 1.578800 -0.433013
v -0.000000 1.415624 -0.492404
v -0.000000 0.413176 -0.492404
v -0.000000 0.250000 -0.433013
v -0.000000 0.116978 -0.321394
v -0.000000 0.030154 -0.171010
v 0.058489 1.798646 -0.160697
v 0.109923 1.711822 -0.302011
v 0.148099 1.578800 -0.406899
v 0.168412 1.415624 -0.462708
v 0.168412 0.413176 -0.462708
v 0.148099 0.250000 -0.406899
v 0.109923 0.116978 -0.302012
v 0.058489 0.030154 -0.160697
v 0.109923 1.798646 -0.131001
v 0.206588 1.711822 -0.246202
v 0.278335 1.578800 -0.331707
v 0.316511 1.415624 -0.377203
v 0.316511 0.413176 -0.377203
v 0.278335 0.250000 -0.331707
v 0.206588 0.116978 -0.246202
v 0.109923 0.030154 -0.131001
v 0.148099 1.798646 -0.085505
v 0.278335 1.711822 -0.160697
v 0.375000 1.578800 -0.216506
v 0.426434 1.415624 -0.246202
v 0.426434 0.413176 -0.246202
v 0.375000 0.250000 -0.216506
v 0.278335 0.116978 -0.160697
v 0.148099 0.030154 -0.085505
v 0.000000 1.828800 -0.000000
v 0.168412 1.798646 -0.029696
v 0.316511 1.711822 -0.055810
v 0.426434 1.578800 -0.075192
v 0.484923 1.415624 -0.085505
v 0.484923 0.413176 -0.085505
v 0.426434 0.250000 -0.075192
v 0.316511 0.116978 -0.055810
v 0.168412 0.030154 -0.029696
v 0.168412 1.798646 0.029695
v 0.316511 1.711822 0.055809
v 0.426434 1.578800 0.075192
v 0.484923 1.415624 0.085505
v 0.484923 0.413176 0.085505
v 0.426434 0.250000 0.075192
v 0.316511 0.116978 0.055809
v 0.168412 0.030154 0.029696
v 0.000000 0.000000 -0.000000
v 0.148099 1.798646 0.085505
v 0.278335 1.711822 0.160697
v 0.375000 1.578800 0.216506
v 0.426434 1.415624 0.246202
v 0.426434 0.413176 0.246202
v 0.375000 0.250000 0.216506
v 0.278335 0.116978 0.160697
v 0.148099 0.030154 0.085505
v 0.109923 1.798646 0.131001
v 0.206588 1.711822 0.246202
v 0.278335 1.578800 0.331707
v 0.316511 1.415624 0.377203
v 0.316511 0.413176 0.377203
v 0.278335 0.250000 0.331707
v 0.206588 0.116978 0.246202
v 0.109923 0.030154 0.131001
v 0.058489 1.798646 0.160697
v 0.109923 1.711822 0.302011
v 0.148099 1.578800 0.406899
v 0.168412 1.415624 0.462708
v 0.168412 0.413176 0.462708
v 0.148099 0.250000 0.406899
v 0.109923 0.116978 0.302011
v 0.058489 0.030154 0.160697
v 0.000000 1.798646 0.171010
v 0.000000 1.711822 0.321394
v 0.000000 1.578800 0.433013
v 0.000000 1.415624 0.492404
v 0.000000 0.413176 0.492404
v 0.000000 0.250000 0.433013
v 0.000000 0.116978 0.321394
v 0.000000 0.030154 0.171010
vt 0.722222 0.444444
vt 0.722222 0.555556
vt 0.666667 0.555556
vt 0.666667 0.444444
vt 0.722222 0.777778
vt 0.722222 0.888889
vt 0.666667 0.888889
vt 0.666667 0.777778
vt 0.694444 0.000000
vt 0.722222 0.111111
vt 0.666667 0.111111
vt 0.722222 0.333333
vt 0.666667 0.333333
vt 0.722222 0.666667
vt 0.666667 0.666667
vt 0.722222 0.222222
vt 0.666667 0.222222
vt 0.694444 1.000000
vt 0.611111 0.444444
vt 0.611111 0.333333
vt 0.611111 0.777778
vt 0.611111 0.666667
vt 0.611111 0.222222
vt 0.611111 0.555556
vt 0.638889 1.000000
vt 0.611111 0.888889
vt 0.611111 0.111111
vt 0.638889 0.000000
vt 0.555555 0.666667
vt 0.555555 0.555556
vt 0.583333 1.000000
vt 0.555555 0.888889
vt 0.555555 0.222222
vt 0.555555 0.111111
vt 0.555555 0.444444
vt 0.555555 0.777778
vt 0.583333 0.000000
vt 0.555555 0.333333
vt 0.500000 0.888889
vt 0.500000 0.777778
vt 0.527778 0.000000
vt 0.500000 0.111111
vt 0.500000 0.444444
vt 0.500000 0.333333
vt 0.500000 0.666667
vt 0.500000 0.222222
vt 0.500000 0.555556
vt 0.527778 1.000000
vt 0.444444 0.333333
vt 0.444444 0.222222
vt 0.444444 0.666667
vt 0.444444 0.555556
vt 0.472222 1.000000
vt 0.444444 0.888889
vt 0.444444 0.111111
vt 0.444444 0.444444
vt 0.444444 0.777778
vt 0.472222 0.000000
vt 0.388889 0.555556
vt 0.388889 0.444444
vt 0.388889 0.888889
vt 0.388889 0.777778
vt 0.416667 0.000000
vt 0.388889 0.111111
vt 0.388889 0.333333
vt 0.388889 0.666667
vt 0.388889 0.222222
vt 0.416667 1.000000
vt 0.333333 0.777778
vt 0.333333 0.666667
vt 0.333333 0.333333
vt 0.333333 0.222222
vt 0.333333 0.555556
vt 0.361111 1.000000
vt 0.333333 0.888889
vt 0.333333 0.111111
vt 0.333333 0.444444
vt 0.361111 0.000000
vt 0.305555 1.000000
vt 0.277778 0.888889
vt 0.277778 0.222222
vt 0.277778 0.111111
vt 0.277778 0.555556
vt 0.277778 0.444444
vt 0.277778 0.777778
vt 0.305555 0.000000
vt 0.277778 0.333333
vt 0.277778 0.666667
vt 0.250000 0.000000
vt 0.222222 0.111111
vt 0.222222 0.444444
vt 0.222222 0.333333
vt 0.222222 0.777778
vt 0.222222 0.666667
vt 0.222222 0.222222
vt 0.222222 0.555556
vt 0.250000 1.000000
vt 0.222222 0.888889
vt 0.166667 0.333333
vt 0.166667 0.222222
vt 0.166667 0.666667
vt 0.166667 0.555556
vt 0.194444 1.000000
vt 0.166667 0.888889
vt 0.166667 0.111111
vt 0.166667 0.444444
vt 0.166667 0.777778
vt 0.194444 0.000000
vt 0.111111 0.555556
vt 0.111111 0.444444
vt 0.111111 0.888889
vt 0.111111 0.777778
vt 0.138889 0.000000
vt 0.111111 0.111111
vt 0.111111 0.333333
vt 0.111111 0.666667
vt 0.111111 0.222222
vt 0.138889 1.000000
vt 0.055556 0.777778
vt 0.055556 0.666667
vt 0.055556 0.333333
vt 0.055556 0.222222
vt 0.055556 0.555556
vt 0.083333 1.000000
vt 0.055556 0.888889
vt 0.055556 0.111111
vt 0.055556 0.444444
vt 0.083333 0.000000
vt 0.027778 1.000000
vt 0.000000 0.888889
vt 0.000000 0.222222
vt 0.000000 0.111111
vt 0.000000 0.555556
vt 0.000000 0.444444
vt 0.000000 0.777778
vt 0.027778 0.000000
vt 0.000000 0.333333
vt 0.000000 0.666667
vt 1.000000 0.333333
vt 1.000000 0.444444
vt 0.944444 0.444444
vt 0.944444 0.333333
vt 1.000000 0.666667
vt 1.000000 0.777778
vt 0.944444 0.777778
vt 0.944444 0.666667
vt 1.000000 0.222222
vt 0.944444 0.222222
vt 1.000000 0.555556
vt 0.944444 0.555556
vt 1.000000 0.888889
vt 0.972222 1.000000
vt 0.944444 0.888889
vt 1.000000 0.111111
vt 0.944444 0.111111
vt 0.972222 0.000000
vt 0.888889 0.666667
vt 0.888889 0.555556
vt 0.916667 1.000000
vt 0.888889 0.888889
vt 0.888889 0.222222
vt 0.888889 0.111111
vt 0.888889 0.444444
vt 0.888889 0.777778
vt 0.916667 0.000000
vt 0.888889 0.333333
vt 0.833333 0.888889
vt 0.833333 0.777778
vt 0.861111 0.000000
vt 0.833333 0.111111
vt 0.833333 0.444444
vt 0.833333 0.333333
vt 0.833333 0.666667
vt 0.833333 0.222222
vt 0.833333 0.555556
vt 0.861111 1.000000
vt 0.777778 0.333333
vt 0.777778 0.222222
vt 0.777778 0.666667
vt 0.777778 0.555556
vt 0.805556 1.000000
vt 0.777778 0.888889
vt 0.777778 0.111111
vt 0.777778 0.444444
vt 0.777778 0.777778
vt 0.805556 0.000000
vt 0.750000 0.000000
vt 0.750000 1.000000
vn -0.1736 0.0000 0.9848
vn -0.0878 0.8627 0.4981
vn -0.0306 -0.9843 0.1736
vn -0.1635 -0.3374 0.9271
vn -0.1339 0.6370 0.7592
vn -0.1339 -0.6370 0.7592
vn -0.1635 0.3374 0.9271
vn -0.0306 0.9843 0.1736
vn -0.0878 -0.8627 0.4981
vn -0.4707 -0.3374 0.8152
vn -0.3854 0.6370 0.6676
vn -0.3854 -0.6370 0.6676
vn -0.4707 0.3374 0.8152
vn -0.0881 0.9843 0.1526
vn -0.2529 -0.8627 0.4380
vn -0.5000 0.0000 0.8660
vn -0.2529 0.8627 0.4380
vn -0.0881 -0.9843 0.1526
vn -0.7211 0.3374 0.6051
vn -0.1350 0.9843 0.1133
vn -0.3874 -0.8627 0.3251
vn -0.7660 0.0000 0.6428
vn -0.3874 0.8627 0.3251
vn -0.1350 -0.9843 0.1133
vn -0.7211 -0.3374 0.6051
vn -0.5905 0.6370 0.4955
vn -0.5905 -0.6370 0.4955
vn -0.4753 0.8627 0.1730
vn -0.1656 -0.9843 0.0603
vn -0.8846 -0.3374 0.3220
vn -0.7244 0.6370 0.2637
vn -0.7244 -0.6370 0.2637
vn -0.8846 0.3374 0.3220
vn -0.1656 0.9843 0.0603
vn -0.4753 -0.8627 0.1730
vn -0.9397 0.0000 0.3420
vn -0.7709 -0.6370 0.0000
vn -0.9414 0.3374 0.0000
vn -0.1762 0.9843 0.0000
vn -0.5058 -0.8627 0.0000
vn -1.0000 0.0000 0.0000
vn -0.5058 0.8627 0.0000
vn -0.1762 -0.9843 0.0000
vn -0.9414 -0.3374 0.0000
vn -0.7709 0.6370 0.0000
vn -0.9397 0.0000 -0.3420
vn -0.4753 0.8627 -0.1730
vn -0.1656 -0.9843 -0.0603
vn -0.8846 -0.3374 -0.3220
vn -0.7244 0.6370 -0.2637
vn -0.7244 -0.6370 -0.2637
vn -0.8846 0.3374 -0.3220
vn -0.1656 0.9843 -0.0603
vn -0.4753 -0.8627 -0.1730
vn -0.5905 0.6370 -0.4955
vn -0.5905 -0.6370 -0.4955
vn -0.7211 0.3374 -0.6051
vn -0.1350 0.9843 -0.1133
vn -0.3874 -0.8627 -0.3251
vn -0.7660 0.0000 -0.6428
vn -0.3874 0.8627 -0.3251
vn -0.1350 -0.9843 -0.1133
vn -0.7211 -0.3374 -0.6051
vn -0.0881 0.9843 -0.1526
vn -0.2529 -0.8627 -0.4380
vn -0.5000 0.0000 -0.8660
vn -0.2529 0.8627 -0.4380
vn -0.0881 -0.9843 -0.1526
vn -0.4707 -0.3374 -0.8152
vn -0.3854 0.6370 -0.6676
vn -0.3854 -0.6370 -0.6676
vn -0.4707 0.3374 -0.8152
vn -0.0306 -0.9843 -0.1736
vn -0.1635 -0.3374 -0.9271
vn -0.1339 0.6370 -0.7592
vn -0.1339 -0.6370 -0.7592
vn -0.1635 0.3374 -0.9271
vn -0.0306 0.9843 -0.1736
vn -0.0878 -0.8627 -0.4981
vn -0.1736 0.0000 -0.9848
vn -0.0878 0.8627 -0.4981
vn 0.1339 -0.6370 -0.7592
vn 0.1635 0.3374 -0.9271
vn 0.0306 0.9843 -0.1736
vn 0.0878 -0.8627 -0.4981
vn 0.1736 0.0000 -0.9848
vn 0.0878 0.8627 -0.4981
vn 0.0306 -0.9843 -0.1736
vn 0.1635 -0.3374 -0.9271
vn 0.1339 0.6370 -0.7592
vn 0.5000 0.0000 -0.8660
vn 0.2529 0.8627 -0.4380
vn 0.0881 -0.9843 -0.1526
vn 0.4707 -0.3374 -0.8152
vn 0.3854 0.6370 -0.6676
vn 0.3854 -0.6370 -0.6676
vn 0.4707 0.3374 -0.8152
vn 0.0881 0.9843 -0.1526
vn 0.2529 -0.8627 -0.4380
vn 0.5905 0.6370 -0.4955
vn 0.5905 -0.6370 -0.4955
vn 0.7211 0.3374 -0.6051
vn 0.1350 0.9843 -0.1133
vn 0.3874 -0.8627 -0.3251
vn 0.7660 0.0000 -0.6428
vn 0.3874 0.8627 -0.3251
vn 0.1350 -0.9843 -0.1133
vn 0.7211 -0.3374 -0.6051
vn 0.1656 0.9843 -0.0603
vn 0.4753 -0.8627 -0.1730
vn 0.9397 0.0000 -0.3420
vn 0.4753 0.8627 -0.1730
vn 0.1656 -0.9843 -0.0603
vn 0.8846 -0.3374 -0.3220
vn 0.7244 0.6370 -0.2637
vn 0.7244 -0.6370 -0.2637
vn 0.8846 0.3374 -0.3220
vn 0.9414 -0.3374 -0.0000
vn 0.7709 0.6370 0.0000
vn 0.7709 -0.6370 0.0000
vn 0.9414 0.3374 0.0000
vn 0.1762 0.9843 0.0000
vn 0.5058 -0.8627 0.0000
vn 1.0000 0.0000 -0.0000
vn 0.5058 0.8627 0.0000
vn 0.1762 -0.9843 0.0000
vn 0.8846 0.3374 0.3220
vn 0.1656 0.9843 0.0603
vn 0.4753 -0.8627 0.1730
vn 0.9397 0.0000 0.3420
vn 0.4753 0.8627 0.1730
vn 0.1656 -0.9843 0.0603
vn 0.8846 -0.3374 0.3220
vn 0.7244 0.6370 0.2636
vn 0.7244 -0.6370 0.2637
vn 0.3874 0.8627 0.3251
vn 0.1350 -0.9843 0.1133
vn 0.7211 -0.3374 0.6051
vn 0.5905 0.6370 0.4955
vn 0.5905 -0.6370 0.4955
vn 0.7211 0.3374 0.6051
vn 0.1350 0.9843 0.1133
vn 0.3874 -0.8627 0.3251
vn 0.7660 0.0000 0.6428
vn 0.3854 -0.6370 0.6676
vn 0.4707 0.3374 0.8152
vn 0.0881 0.9843 0.1526
vn 0.2529 -0.8627 0.4380
vn 0.5000 0.0000 0.8660
vn 0.2529 0.8627 0.4380
vn 0.0881 -0.9843 0.1526
vn 0.4707 -0.3374 0.8152
vn 0.3854 0.6370 0.6676
vn 0.0878 -0.8627 0.4981
vn 0.1736 0.0000 0.9848
vn 0.0878 0.8627 0.4981
vn 0.0306 -0.9843 0.1736
vn 0.1635 -0.3374 0.9271
vn 0.1339 0.6370 0.7592
vn 0.1339 -0.6370 0.7592
vn 0.1635 0.3374 0.9271
vn 0.0306 0.9843 0.1736
usemtl None
s off
f 143/1/1 142/2/1 4/3/1 5/4/1
f 140/5/2 139/6/2 1/7/2 2/8/2
f 114/9/3 146/10/3 8/11/3
f 144/12/4 143/1/4 5/4/4 6/13/4
f 141/14/5 140/5/5 2/8/5 3/15/5
f 145/16/6 144/12/6 6/13/6 7/17/6
f 142/2/7 141/14/7 3/15/7 4/3/7
f 139/6/8 97/18/8 1/7/8
f 146/10/9 145/16/9 7/17/9 8/11/9
f 6/13/10 5/4/10 13/19/10 14/20/10
f 3/15/11 2/8/11 10/21/11 11/22/11
f 7/17/12 6/13/12 14/20/12 15/23/12
f 4/3/13 3/15/13 11/22/13 12/24/13
f 1/7/14 97/25/14 9/26/14
f 8/11/15 7/17/15 15/23/15 16/27/15
f 5/4/16 4/3/16 12/24/16 13/19/16
f 2/8/17 1/7/17 9/26/17 10/21/17
f 114/28/18 8/11/18 16/27/18
f 12/24/19 11/22/19 19/29/19 20/30/19
f 9/26/20 97/31/20 17/32/20
f 16/27/21 15/23/21 23/33/21 24/34/21
f 13/19/22 12/24/22 20/30/22 21/35/22
f 10/21/23 9/26/23 17/32/23 18/36/23
f 114/37/24 16/27/24 24/34/24
f 14/20/25 13/19/25 21/35/25 22/38/25
f 11/22/26 10/21/26 18/36/26 19/29/26
f 15/23/27 14/20/27 22/38/27 23/33/27
f 18/36/28 17/32/28 25/39/28 26/40/28
f 114/41/29 24/34/29 32/42/29
f 22/38/30 21/35/30 29/43/30 30/44/30
f 19/29/31 18/36/31 26/40/31 27/45/31
f 23/33/32 22/38/32 30/44/32 31/46/32
f 20/30/33 19/29/33 27/45/33 28/47/33
f 17/32/34 97/48/34 25/39/34
f 24/34/35 23/33/35 31/46/35 32/42/35
f 21/35/36 20/30/36 28/47/36 29/43/36
f 31/46/37 30/44/37 38/49/37 39/50/37
f 28/47/38 27/45/38 35/51/38 36/52/38
f 25/39/39 97/53/39 33/54/39
f 32/42/40 31/46/40 39/50/40 40/55/40
f 29/43/41 28/47/41 36/52/41 37/56/41
f 26/40/42 25/39/42 33/54/42 34/57/42
f 114/58/43 32/42/43 40/55/43
f 30/44/44 29/43/44 37/56/44 38/49/44
f 27/45/45 26/40/45 34/57/45 35/51/45
f 37/56/46 36/52/46 44/59/46 45/60/46
f 34/57/47 33/54/47 41/61/47 42/62/47
f 114/63/48 40/55/48 48/64/48
f 38/49/49 37/56/49 45/60/49 46/65/49
f 35/51/50 34/57/50 42/62/50 43/66/50
f 39/50/51 38/49/51 46/65/51 47/67/51
f 36/52/52 35/51/52 43/66/52 44/59/52
f 33/54/53 97/68/53 41/61/53
f 40/55/54 39/50/54 47/67/54 48/64/54
f 43/66/55 42/62/55 50/69/55 51/70/55
f 47/67/56 46/65/56 54/71/56 55/72/56
f 44/59/57 43/66/57 51/70/57 52/73/57
f 41/61/58 97/74/58 49/75/58
f 48/64/59 47/67/59 55/72/59 56/76/59
f 45/60/60 44/59/60 52/73/60 53/77/60
f 42/62/61 41/61/61 49/75/61 50/69/61
f 114/78/62 48/64/62 56/76/62
f 46/65/63 45/60/63 53/77/63 54/71/63
f 49/75/64 97/79/64 57/80/64
f 56/76/65 55/72/65 63/81/65 64/82/65
f 53/77/66 52/73/66 60/83/66 61/84/66
f 50/69/67 49/75/67 57/80/67 58/85/67
f 114/86/68 56/76/68 64/82/68
f 54/71/69 53/77/69 61/84/69 62/87/69
f 51/70/70 50/69/70 58/85/70 59/88/70
f 55/72/71 54/71/71 62/87/71 63/81/71
f 52/73/72 51/70/72 59/88/72 60/83/72
f 114/89/73 64/82/73 72/90/73
f 62/87/74 61/84/74 69/91/74 70/92/74
f 59/88/75 58/85/75 66/93/75 67/94/75
f 63/81/76 62/87/76 70/92/76 71/95/76
f 60/83/77 59/88/77 67/94/77 68/96/77
f 57/80/78 97/97/78 65/98/78
f 64/82/79 63/81/79 71/95/79 72/90/79
f 61/84/80 60/83/80 68/96/80 69/91/80
f 58/85/81 57/80/81 65/98/81 66/93/81
f 71/95/82 70/92/82 78/99/82 79/100/82
f 68/96/83 67/94/83 75/101/83 76/102/83
f 65/98/84 97/103/84 73/104/84
f 72/90/85 71/95/85 79/100/85 80/105/85
f 69/91/86 68/96/86 76/102/86 77/106/86
f 66/93/87 65/98/87 73/104/87 74/107/87
f 114/108/88 72/90/88 80/105/88
f 70/92/89 69/91/89 77/106/89 78/99/89
f 67/94/90 66/93/90 74/107/90 75/101/90
f 77/106/91 76/102/91 84/109/91 85/110/91
f 74/107/92 73/104/92 81/111/92 82/112/92
f 114/113/93 80/105/93 88/114/93
f 78/99/94 77/106/94 85/110/94 86/115/94
f 75/101/95 74/107/95 82/112/95 83/116/95
f 79/100/96 78/99/96 86/115/96 87/117/96
f 76/102/97 75/101/97 83/116/97 84/109/97
f 73/104/98 97/118/98 81/111/98
f 80/105/99 79/100/99 87/117/99 88/114/99
f 83/116/100 82/112/100 90/119/100 91/120/100
f 87/117/101 86/115/101 94/121/101 95/122/101
f 84/109/102 83/116/102 91/120/102 92/123/102
f 81/111/103 97/124/103 89/125/103
f 88/114/104 87/117/104 95/122/104 96/126/104
f 85/110/105 84/109/105 92/123/105 93/127/105
f 82/112/106 81/111/106 89/125/106 90/119/106
f 114/128/107 88/114/107 96/126/107
f 86/115/108 85/110/108 93/127/108 94/121/108
f 89/125/109 97/129/109 98/130/109
f 96/126/110 95/122/110 104/131/110 105/132/110
f 93/127/111 92/123/111 101/133/111 102/134/111
f 90/119/112 89/125/112 98/130/112 99/135/112
f 114/136/113 96/126/113 105/132/113
f 94/121/114 93/127/114 102/134/114 103/137/114
f 91/120/115 90/119/115 99/135/115 100/138/115
f 95/122/116 94/121/116 103/137/116 104/131/116
f 92/123/117 91/120/117 100/138/117 101/133/117
f 103/139/118 102/140/118 110/141/118 111/142/118
f 100/143/119 99/144/119 107/145/119 108/146/119
f 104/147/120 103/139/120 111/142/120 112/148/120
f 101/149/121 100/143/121 108/146/121 109/150/121
f 98/151/122 97/152/122 106/153/122
f 105/154/123 104/147/123 112/148/123 113/155/123
f 102/140/124 101/149/124 109/150/124 110/141/124
f 99/144/125 98/151/125 106/153/125 107/145/125
f 114/156/126 105/154/126 113/155/126
f 109/150/127 108/146/127 117/157/127 118/158/127
f 106/153/128 97/159/128 115/160/128
f 113/155/129 112/148/129 121/161/129 122/162/129
f 110/141/130 109/150/130 118/158/130 119/163/130
f 107/145/131 106/153/131 115/160/131 116/164/131
f 114/165/132 113/155/132 122/162/132
f 111/142/133 110/141/133 119/163/133 120/166/133
f 108/146/134 107/145/134 116/164/134 117/157/134
f 112/148/135 111/142/135 120/166/135 121/161/135
f 116/164/136 115/160/136 123/167/136 124/168/136
f 114/169/137 122/162/137 130/170/137
f 120/166/138 119/163/138 127/171/138 128/172/138
f 117/157/139 116/164/139 124/168/139 125/173/139
f 121/161/140 120/166/140 128/172/140 129/174/140
f 118/158/141 117/157/141 125/173/141 126/175/141
f 115/160/142 97/176/142 123/167/142
f 122/162/143 121/161/143 129/174/143 130/170/143
f 119/163/144 118/158/144 126/175/144 127/171/144
f 129/174/145 128/172/145 136/177/145 137/178/145
f 126/175/146 125/173/146 133/179/146 134/180/146
f 123/167/147 97/181/147 131/182/147
f 130/170/148 129/174/148 137/178/148 138/183/148
f 127/171/149 126/175/149 134/180/149 135/184/149
f 124/168/150 123/167/150 131/182/150 132/185/150
f 114/186/151 130/170/151 138/183/151
f 128/172/152 127/171/152 135/184/152 136/177/152
f 125/173/153 124/168/153 132/185/153 133/179/153
f 138/183/154 137/178/154 145/16/154 146/10/154
f 135/184/155 134/180/155 142/2/155 143/1/155
f 132/185/156 131/182/156 139/6/156 140/5/156
f 114/187/157 138/183/157 146/10/157
f 136/177/158 135/184/158 143/1/158 144/12/158
f 133/179/159 132/185/159 140/5/159 141/14/159
f 137/178/160 136/177/160 144/12/160 145/16/160
f 134/180/161 133/179/161 141/14/161 142/2/161
f 131/182/162 97/188/162 139/6/162
